<?xml version="1.0" encoding="UTF-8"?>
<svg width="240" height="240" enable-background="new 0 0 240 240" version="1.1" viewBox="0 0 240 240" xml:space="preserve" xmlns="http://www.w3.org/2000/svg">
<style type="text/css">
	.st0{fill-rule:evenodd;clip-rule:evenodd;fill:#EDDAB6;}
	.st1{fill-rule:evenodd;clip-rule:evenodd;fill:#E9A35B;}
	.st2{fill-rule:evenodd;clip-rule:evenodd;fill:#0E2237;}
	.st3{opacity:7.000000e-02;fill:none;enable-background:new    ;}
	.st4{fill-rule:evenodd;clip-rule:evenodd;fill:#FFF6E4;}
</style>

	<g transform="translate(-68 -150)">
		<g transform="translate(68 150)">
			<circle class="st0" cx="120" cy="120" r="107.5"/>
			
				<path class="st1" d="m194.8 175.3c11.4-15.5 18.2-34.6 18.2-55.3 0-51.4-41.7-93.1-93.1-93.1s-93.1 41.7-93.1 93.1c0 20.7 6.8 39.8 18.2 55.3 17-6 44.2-9.9 74.9-9.9s58 3.8 74.9 9.9"/>
				<path class="st2" d="m99 67.8 8.5 2.8 6.6 2.1 3.5-1.9 10.7 6.3c0.9-1.2 2.4-2 4-2 2.8 0 5.1 2.3 5.1 5.1 0 0.7-0.1 1.4-0.4 2l19 11.4s8.7 6 12.6 15.7c1.2 2.6 1.8 5.5 1.8 8.5v51.4c9.5 1.6 17.7 3.7 24.4 6-17 22.9-44.2 37.8-74.9 37.8s-57.9-14.8-74.8-37.7c6.7-2.4 15-4.4 24.4-6v-23.2-1.1c0-22.8 17.7-41.5 40.1-43.2l-11.3-19.4-3.7-6.3 4.4-8.3zm49.2 85.6c-8 0-14.9 5-17.5 12.1 7.1 0.2 13.9 0.6 20.5 1.2v-13.1c-1-0.2-2-0.2-3-0.2zm-40.7 0c-8.5 0-15.6 5.6-17.9 13.3 6.6-0.6 13.5-1 20.6-1.2v-11.9c-0.9-0.2-1.8-0.2-2.7-0.2zm11.4-78.5c-1 0-1.9 0.8-1.9 1.9 0 1 0.8 1.9 1.9 1.9s1.9-0.8 1.9-1.9c-0.1-1-0.9-1.9-1.9-1.9z"/>
				<path class="st3" d="m99 67.8 8.5 2.8 6.6 2.1 3.5-1.9 10.7 6.3c0.9-1.2 2.4-2 4-2 2.8 0 5.1 2.3 5.1 5.1 0 0.7-0.1 1.4-0.4 2l19 11.4s8.7 6 12.6 15.7c1.2 2.6 1.8 5.5 1.8 8.5v51.4c9.5 1.6 17.7 3.7 24.4 6-17 22.9-44.2 37.8-74.9 37.8s-57.9-14.8-74.8-37.7c6.7-2.4 15-4.4 24.4-6v-23.2-1.1c0-22.8 17.7-41.5 40.1-43.2l-11.3-19.4-3.7-6.3 4.4-8.3zm49.2 85.6c-8 0-14.9 5-17.5 12.1 7.1 0.2 13.9 0.6 20.5 1.2v-13.1c-1-0.2-2-0.2-3-0.2zm-40.7 0c-8.5 0-15.6 5.6-17.9 13.3 6.6-0.6 13.5-1 20.6-1.2v-11.9c-0.9-0.2-1.8-0.2-2.7-0.2zm11.4-78.5c-1 0-1.9 0.8-1.9 1.9 0 1 0.8 1.9 1.9 1.9s1.9-0.8 1.9-1.9c-0.1-1-0.9-1.9-1.9-1.9z"/>
				<polygon class="st4" points="91.7 52.4 84.9 49.5 91.7 46.7 94.6 39.9 97.4 46.7 104.2 49.5 97.4 52.4 94.6 59.2"/>
				<polygon class="st4" points="55.3 72.6 57.7 75 60 72.6 57.7 70.2"/>
				<polygon class="st4" points="193.9 140 191.5 142.4 189.1 140 191.5 137.6"/>
				<polygon class="st4" points="193.4 102.3 190.1 105.6 186.8 102.3 190.1 99"/>
				<path class="st4" d="m73.7 92.8c0 5.6-4.5 10.1-10.1 10.1s-10.1-4.5-10.1-10.1 4.5-10.1 10.1-10.1c5.5-0.1 10.1 4.5 10.1 10.1"/>
				<path class="st4" d="m190.5 85c0 4.8-3.9 8.7-8.7 8.7s-8.7-3.9-8.7-8.7 3.9-8.7 8.7-8.7 8.7 3.9 8.7 8.7"/>
				<path class="st4" d="m51.3 138.2c0 3.4-2.8 6.2-6.2 6.2s-6.2-2.8-6.2-6.2 2.8-6.2 6.2-6.2 6.2 2.7 6.2 6.2"/>
				<path class="st4" d="m150.7 59.8c0 3.2-2.6 5.8-5.8 5.8s-5.8-2.6-5.8-5.8 2.6-5.8 5.8-5.8c3.1 0 5.8 2.6 5.8 5.8"/>
			
		</g>
	</g>

</svg>
