<?xml version="1.0" encoding="utf-8"?>
<!-- Generator: Adobe Illustrator 25.4.1, SVG Export Plug-In . SVG Version: 6.00 Build 0)  -->
<svg version="1.1" id="Layer_1" xmlns="http://www.w3.org/2000/svg" xmlns:xlink="http://www.w3.org/1999/xlink" x="0px" y="0px"
	 viewBox="0 0 208 208" style="enable-background:new 0 0 208 208;" xml:space="preserve">
<style type="text/css">
	.st0{fill-rule:evenodd;clip-rule:evenodd;fill:#E9A35B;}
	.st1{fill-rule:evenodd;clip-rule:evenodd;fill:#001121;}
	.st2{fill:none;}
	.st3{fill-rule:evenodd;clip-rule:evenodd;fill:#FFF6E4;}
</style>
<g id="Website-_x26_-App">
	<g id="Logo-Variations" transform="translate(-358.000000, -166.000000)">
		<g id="Group-29" transform="translate(358.000000, 166.000000)">
			<path id="Fill-1" class="st0" d="M178.8,159.3c11.4-15.5,18.2-34.6,18.2-55.3c0-51.4-41.7-93.1-93.1-93.1S10.8,52.6,10.8,104
				c0,20.7,6.8,39.8,18.2,55.3c17-6,44.2-9.9,74.9-9.9S161.9,153.2,178.8,159.3"/>
			<path id="Combined-Shape" class="st1" d="M83,51.8l8.5,2.8l6.6,2.1l3.5-1.9l10.7,6.3c0.9-1.2,2.4-2,4-2c2.8,0,5.1,2.3,5.1,5.1
				c0,0.7-0.1,1.4-0.4,2l0,0l19,11.4c0,0,8.7,6,12.6,15.7c1.2,2.6,1.8,5.5,1.8,8.5l0,0v51.4c9.5,1.6,17.7,3.7,24.4,6
				c-17,22.9-44.2,37.8-74.9,37.8S46,182.2,29.1,159.3c6.7-2.4,15-4.4,24.4-6v-23.2l0,0c0-0.4,0-0.8,0-1.1
				c0-22.8,17.7-41.5,40.1-43.2l0,0l0,0L82.3,66.4l-3.7-6.3L83,51.8z M132.2,137.4c-8,0-14.9,5-17.5,12.1c7.1,0.2,13.9,0.6,20.5,1.2
				v-13.1C134.2,137.4,133.2,137.4,132.2,137.4z M91.5,137.4c-8.5,0-15.6,5.6-17.9,13.3c6.6-0.6,13.5-1,20.6-1.2v-11.9
				C93.3,137.4,92.4,137.4,91.5,137.4z M102.9,58.9c-1,0-1.9,0.8-1.9,1.9c0,1,0.8,1.9,1.9,1.9s1.9-0.8,1.9-1.9
				C104.7,59.8,103.9,58.9,102.9,58.9z"/>
			<path id="Combined-Shape-Copy-2" class="st2" d="M83,51.8l8.5,2.8l6.6,2.1l3.5-1.9l10.7,6.3c0.9-1.2,2.4-2,4-2
				c2.8,0,5.1,2.3,5.1,5.1c0,0.7-0.1,1.4-0.4,2l0,0l19,11.4c0,0,8.7,6,12.6,15.7c1.2,2.6,1.8,5.5,1.8,8.5l0,0v51.4
				c9.5,1.6,17.7,3.7,24.4,6c-17,22.9-44.2,37.8-74.9,37.8S46,182.2,29.1,159.3c6.7-2.4,15-4.4,24.4-6v-23.2l0,0c0-0.4,0-0.8,0-1.1
				c0-22.8,17.7-41.5,40.1-43.2l0,0l0,0L82.3,66.4l-3.7-6.3L83,51.8z M132.2,137.4c-8,0-14.9,5-17.5,12.1c7.1,0.2,13.9,0.6,20.5,1.2
				v-13.1C134.2,137.4,133.2,137.4,132.2,137.4z M91.5,137.4c-8.5,0-15.6,5.6-17.9,13.3c6.6-0.6,13.5-1,20.6-1.2v-11.9
				C93.3,137.4,92.4,137.4,91.5,137.4z M102.9,58.9c-1,0-1.9,0.8-1.9,1.9c0,1,0.8,1.9,1.9,1.9s1.9-0.8,1.9-1.9
				C104.7,59.8,103.9,58.9,102.9,58.9z"/>
			<polygon id="Fill-8" class="st3" points="75.7,36.4 68.9,33.5 75.7,30.7 78.6,23.9 81.4,30.7 88.2,33.5 81.4,36.4 78.6,43.2 			
				"/>
			<polygon id="Fill-10" class="st3" points="39.3,56.6 41.7,59 44,56.6 41.7,54.2 			"/>
			<polygon id="Fill-12" class="st3" points="177.9,124 175.5,126.4 173.1,124 175.5,121.6 			"/>
			<polygon id="Fill-16" class="st3" points="177.4,86.3 174.1,89.6 170.8,86.3 174.1,83 			"/>
			<path id="Fill-20" class="st3" d="M57.7,76.8c0,5.6-4.5,10.1-10.1,10.1s-10.1-4.5-10.1-10.1S42,66.7,47.6,66.7
				C53.1,66.6,57.7,71.2,57.7,76.8"/>
			<path id="Fill-22" class="st3" d="M174.5,69c0,4.8-3.9,8.7-8.7,8.7s-8.7-3.9-8.7-8.7c0-4.8,3.9-8.7,8.7-8.7S174.5,64.2,174.5,69"
				/>
			<path id="Fill-24" class="st3" d="M35.3,122.2c0,3.4-2.8,6.2-6.2,6.2s-6.2-2.8-6.2-6.2c0-3.4,2.8-6.2,6.2-6.2
				S35.3,118.7,35.3,122.2"/>
			<path id="Fill-26" class="st3" d="M134.7,43.8c0,3.2-2.6,5.8-5.8,5.8s-5.8-2.6-5.8-5.8s2.6-5.8,5.8-5.8
				C132,38,134.7,40.6,134.7,43.8"/>
		</g>
	</g>
</g>
</svg>
